2
480
note_on channel=0 note=31 velocity=46 time=713
note_off channel=0 note=31 velocity=0 time=446
note_on channel=0 note=28 velocity=56 time=0
note_off channel=0 note=28 velocity=0 time=45
note_on channel=0 note=28 velocity=59 time=22
note_off channel=0 note=28 velocity=0 time=45
note_on channel=0 note=30 velocity=44 time=0
note_off channel=0 note=30 velocity=0 time=0
note_on channel=0 note=30 velocity=57 time=22
note_off channel=0 note=30 velocity=0 time=45
note_on channel=0 note=28 velocity=47 time=0
note_off channel=0 note=28 velocity=0 time=190
note_on channel=0 note=28 velocity=57 time=78
note_off channel=0 note=28 velocity=0 time=101
note_on channel=0 note=30 velocity=46 time=100
note_off channel=0 note=30 velocity=0 time=67
note_on channel=0 note=85 velocity=36 time=11
note_off channel=0 note=85 velocity=0 time=23
note_on channel=0 note=28 velocity=52 time=0
note_off channel=0 note=28 velocity=0 time=11
note_on channel=0 note=28 velocity=73 time=12
note_off channel=0 note=28 velocity=0 time=1
note_on channel=0 note=26 velocity=47 time=145
note_off channel=0 note=26 velocity=0 time=167
note_on channel=0 note=28 velocity=41 time=11
note_off channel=0 note=28 velocity=0 time=101
note_on channel=0 note=30 velocity=45 time=123
note_off channel=0 note=30 velocity=0 time=89
note_on channel=0 note=28 velocity=43 time=22
note_off channel=0 note=28 velocity=0 time=34
note_on channel=0 note=37 velocity=83 time=0
note_on channel=0 note=37 velocity=68 time=0
note_off channel=0 note=37 velocity=0 time=1
note_off channel=0 note=37 velocity=0 time=33
note_on channel=0 note=81 velocity=36 time=10
note_on channel=0 note=30 velocity=54 time=0
note_off channel=0 note=81 velocity=0 time=145
note_off channel=0 note=30 velocity=0 time=123
note_on channel=0 note=35 velocity=88 time=22
note_off channel=0 note=35 velocity=0 time=10
note_on channel=0 note=35 velocity=78 time=1
note_off channel=0 note=35 velocity=0 time=0
note_on channel=0 note=35 velocity=72 time=0
note_off channel=0 note=35 velocity=0 time=22
note_on channel=0 note=35 velocity=50 time=0
note_off channel=0 note=35 velocity=0 time=11
note_on channel=0 note=32 velocity=64 time=56
note_off channel=0 note=32 velocity=0 time=101
note_on channel=0 note=37 velocity=73 time=12
note_on channel=0 note=31 velocity=48 time=33
note_off channel=0 note=31 velocity=0 time=156
note_off channel=0 note=37 velocity=0 time=1
note_on channel=0 note=28 velocity=47 time=44
note_off channel=0 note=28 velocity=0 time=189
note_on channel=0 note=37 velocity=66 time=0
note_on channel=0 note=30 velocity=42 time=0
note_off channel=0 note=30 velocity=0 time=34
note_off channel=0 note=37 velocity=0 time=44
note_on channel=0 note=37 velocity=51 time=1
note_off channel=0 note=37 velocity=0 time=12
note_on channel=0 note=30 velocity=56 time=56
note_off channel=0 note=30 velocity=0 time=89
note_on channel=0 note=30 velocity=58 time=11
note_off channel=0 note=30 velocity=0 time=56
note_on channel=0 note=35 velocity=71 time=200
note_off channel=0 note=35 velocity=0 time=111
note_on channel=0 note=35 velocity=54 time=0
note_off channel=0 note=35 velocity=0 time=44
note_on channel=0 note=35 velocity=64 time=0
note_off channel=0 note=35 velocity=0 time=0
note_on channel=0 note=35 velocity=74 time=0
note_off channel=0 note=35 velocity=0 time=156
note_on channel=0 note=35 velocity=45 time=0
note_off channel=0 note=35 velocity=0 time=0
note_on channel=0 note=32 velocity=61 time=11
note_off channel=0 note=32 velocity=0 time=167
note_on channel=0 note=37 velocity=76 time=22
note_off channel=0 note=37 velocity=0 time=156
note_on channel=0 note=37 velocity=72 time=0
note_off channel=0 note=37 velocity=0 time=44
note_on channel=0 note=30 velocity=58 time=156
note_off channel=0 note=30 velocity=0 time=123
note_on channel=0 note=30 velocity=60 time=0
note_off channel=0 note=30 velocity=0 time=33
note_on channel=0 note=80 velocity=51 time=0
note_on channel=0 note=28 velocity=65 time=66
note_off channel=0 note=80 velocity=0 time=134
note_off channel=0 note=28 velocity=0 time=11
note_on channel=0 note=37 velocity=60 time=0
note_off channel=0 note=37 velocity=0 time=334
note_on channel=0 note=37 velocity=53 time=0
note_off channel=0 note=37 velocity=0 time=22
note_on channel=0 note=35 velocity=65 time=0
note_off channel=0 note=35 velocity=0 time=22
note_on channel=0 note=35 velocity=54 time=11
note_off channel=0 note=35 velocity=0 time=34
note_on channel=0 note=32 velocity=57 time=45
note_off channel=0 note=32 velocity=0 time=77
note_on channel=0 note=32 velocity=43 time=44
note_on channel=0 note=37 velocity=74 time=11
note_off channel=0 note=32 velocity=0 time=78
note_off channel=0 note=37 velocity=0 time=23
note_on channel=0 note=30 velocity=43 time=78
note_off channel=0 note=30 velocity=0 time=12
note_on channel=0 note=28 velocity=43 time=89
note_off channel=0 note=28 velocity=0 time=122
note_on channel=0 note=30 velocity=57 time=33
note_off channel=0 note=30 velocity=0 time=111
note_on channel=0 note=28 velocity=50 time=55
note_off channel=0 note=28 velocity=0 time=111
note_on channel=0 note=37 velocity=69 time=0
note_on channel=0 note=37 velocity=82 time=44
note_off channel=0 note=37 velocity=0 time=1
note_off channel=0 note=37 velocity=0 time=11
note_on channel=0 note=37 velocity=57 time=0
note_off channel=0 note=37 velocity=0 time=11
note_on channel=0 note=37 velocity=63 time=0
note_off channel=0 note=37 velocity=0 time=11
note_on channel=0 note=37 velocity=59 time=0
note_off channel=0 note=37 velocity=0 time=11
note_on channel=0 note=37 velocity=53 time=0
note_off channel=0 note=37 velocity=0 time=23
note_on channel=0 note=30 velocity=46 time=0
note_off channel=0 note=30 velocity=0 time=12
note_on channel=0 note=30 velocity=63 time=57
note_off channel=0 note=30 velocity=0 time=55
note_on channel=0 note=30 velocity=49 time=0
note_on channel=0 note=35 velocity=67 time=68
note_off channel=0 note=30 velocity=0 time=33
note_off channel=0 note=35 velocity=0 time=101
note_on channel=0 note=35 velocity=82 time=0
note_off channel=0 note=35 velocity=0 time=156
note_on channel=0 note=35 velocity=71 time=0
note_off channel=0 note=35 velocity=0 time=11
note_on channel=0 note=35 velocity=31 time=11
note_off channel=0 note=35 velocity=0 time=78
note_on channel=0 note=35 velocity=47 time=11
note_off channel=0 note=35 velocity=0 time=223
note_on channel=0 note=37 velocity=86 time=0
note_on channel=0 note=31 velocity=45 time=22
note_off channel=0 note=31 velocity=0 time=167
note_off channel=0 note=37 velocity=0 time=145
note_on channel=0 note=31 velocity=42 time=0
note_off channel=0 note=31 velocity=0 time=11
note_on channel=0 note=37 velocity=80 time=11
note_on channel=0 note=31 velocity=49 time=100
note_off channel=0 note=31 velocity=0 time=168
note_off channel=0 note=37 velocity=0 time=33
note_on channel=0 note=31 velocity=45 time=78
note_off channel=0 note=31 velocity=0 time=45
note_on channel=0 note=30 velocity=44 time=33
note_off channel=0 note=30 velocity=0 time=11
note_on channel=0 note=35 velocity=45 time=0
note_off channel=0 note=35 velocity=0 time=34
note_on channel=0 note=35 velocity=54 time=0
note_off channel=0 note=35 velocity=0 time=1
note_on channel=0 note=35 velocity=54 time=11
note_off channel=0 note=35 velocity=0 time=22
note_on channel=0 note=37 velocity=39 time=0
note_on channel=0 note=30 velocity=48 time=22
note_off channel=0 note=37 velocity=0 time=55
note_off channel=0 note=30 velocity=0 time=11
note_on channel=0 note=31 velocity=40 time=22
note_off channel=0 note=31 velocity=0 time=11
note_on channel=0 note=31 velocity=45 time=100
note_off channel=0 note=31 velocity=0 time=33
note_on channel=0 note=35 velocity=40 time=12
note_off channel=0 note=35 velocity=0 time=11
note_on channel=0 note=35 velocity=38 time=22
note_off channel=0 note=35 velocity=0 time=11
note_on channel=0 note=30 velocity=46 time=34
note_off channel=0 note=30 velocity=0 time=23
note_on channel=0 note=35 velocity=29 time=123
note_off channel=0 note=35 velocity=0 time=56
note_on channel=0 note=35 velocity=47 time=0
note_off channel=0 note=35 velocity=0 time=23
note_on channel=0 note=30 velocity=40 time=78
note_off channel=0 note=30 velocity=0 time=11
note_on channel=0 note=35 velocity=40 time=0
note_off channel=0 note=35 velocity=0 time=44
note_on channel=0 note=30 velocity=48 time=90
note_off channel=0 note=30 velocity=0 time=12
note_on channel=0 note=35 velocity=43 time=168
note_off channel=0 note=35 velocity=0 time=257
note_on channel=0 note=37 velocity=69 time=56
note_off channel=0 note=37 velocity=0 time=11
note_on channel=0 note=37 velocity=54 time=0
note_off channel=0 note=37 velocity=0 time=22
note_on channel=0 note=37 velocity=60 time=22
note_off channel=0 note=37 velocity=0 time=56
note_on channel=0 note=28 velocity=54 time=112
note_off channel=0 note=28 velocity=0 time=111
note_on channel=0 note=37 velocity=81 time=0
note_off channel=0 note=37 velocity=0 time=22
note_on channel=0 note=37 velocity=68 time=0
note_off channel=0 note=37 velocity=0 time=12
note_on channel=0 note=37 velocity=51 time=0
note_off channel=0 note=37 velocity=0 time=34
note_on channel=0 note=30 velocity=59 time=33
note_off channel=0 note=30 velocity=0 time=44
note_on channel=0 note=81 velocity=41 time=0
note_on channel=0 note=35 velocity=88 time=89
note_off channel=0 note=81 velocity=0 time=11
note_off channel=0 note=35 velocity=0 time=44
note_on channel=0 note=35 velocity=62 time=0
note_off channel=0 note=35 velocity=0 time=67
note_on channel=0 note=35 velocity=58 time=11
note_off channel=0 note=35 velocity=0 time=44
note_on channel=0 note=35 velocity=54 time=0
note_off channel=0 note=35 velocity=0 time=11
note_on channel=0 note=35 velocity=56 time=0
note_off channel=0 note=35 velocity=0 time=111
note_on channel=0 note=32 velocity=71 time=0
note_off channel=0 note=32 velocity=0 time=0
note_on channel=0 note=32 velocity=41 time=0
note_on channel=0 note=37 velocity=73 time=0
note_off channel=0 note=32 velocity=0 time=11
note_off channel=0 note=37 velocity=0 time=56
note_on channel=0 note=30 velocity=68 time=134
note_off channel=0 note=30 velocity=0 time=10
note_on channel=0 note=30 velocity=71 time=1
note_on channel=0 note=37 velocity=56 time=22
note_off channel=0 note=37 velocity=0 time=112
note_on channel=0 note=37 velocity=55 time=0
note_off channel=0 note=30 velocity=0 time=57
note_off channel=0 note=37 velocity=0 time=22
note_on channel=0 note=80 velocity=40 time=45
note_on channel=0 note=35 velocity=77 time=0
note_on channel=0 note=28 velocity=59 time=34
note_off channel=0 note=35 velocity=0 time=11
note_on channel=0 note=35 velocity=51 time=0
note_off channel=0 note=80 velocity=0 time=12
note_off channel=0 note=35 velocity=0 time=44
note_on channel=0 note=35 velocity=53 time=1
note_off channel=0 note=28 velocity=0 time=0
note_off channel=0 note=35 velocity=0 time=45
note_on channel=0 note=33 velocity=58 time=100
note_off channel=0 note=33 velocity=0 time=11
note_on channel=0 note=37 velocity=51 time=11
note_off channel=0 note=37 velocity=0 time=66
note_on channel=0 note=37 velocity=43 time=68
note_off channel=0 note=37 velocity=0 time=124
note_on channel=0 note=35 velocity=75 time=0
note_off channel=0 note=35 velocity=0 time=78
note_on channel=0 note=33 velocity=54 time=145
note_off channel=0 note=33 velocity=0 time=189
note_on channel=0 note=32 velocity=59 time=22
note_off channel=0 note=32 velocity=0 time=67
note_on channel=0 note=37 velocity=66 time=0
note_off channel=0 note=37 velocity=0 time=11
note_on channel=0 note=30 velocity=62 time=78
note_off channel=0 note=30 velocity=0 time=34
note_on channel=0 note=29 velocity=67 time=0
note_off channel=0 note=29 velocity=0 time=66
note_on channel=0 note=28 velocity=47 time=67
note_off channel=0 note=28 velocity=0 time=56
note_on channel=0 note=28 velocity=43 time=45
note_off channel=0 note=28 velocity=0 time=22
note_on channel=0 note=28 velocity=44 time=111
note_off channel=0 note=28 velocity=0 time=0
note_on channel=0 note=28 velocity=55 time=56
note_off channel=0 note=28 velocity=0 time=11
note_on channel=0 note=37 velocity=69 time=0
note_off channel=0 note=37 velocity=0 time=34
note_on channel=0 note=37 velocity=92 time=0
note_off channel=0 note=37 velocity=0 time=1
note_on channel=0 note=37 velocity=71 time=0
note_on channel=0 note=37 velocity=61 time=11
note_off channel=0 note=37 velocity=0 time=1
note_off channel=0 note=37 velocity=0 time=0
note_on channel=0 note=37 velocity=68 time=0
note_off channel=0 note=37 velocity=0 time=0
note_on channel=0 note=37 velocity=64 time=0
note_off channel=0 note=37 velocity=0 time=0
note_on channel=0 note=37 velocity=57 time=0
note_off channel=0 note=37 velocity=0 time=78
note_on channel=0 note=30 velocity=45 time=78
note_off channel=0 note=30 velocity=0 time=0
note_on channel=0 note=30 velocity=59 time=0
note_off channel=0 note=30 velocity=0 time=34
note_on channel=0 note=35 velocity=71 time=167
note_off channel=0 note=35 velocity=0 time=145
note_on channel=0 note=35 velocity=92 time=0
note_off channel=0 note=35 velocity=0 time=77
note_on channel=0 note=35 velocity=88 time=1
note_off channel=0 note=35 velocity=0 time=0
note_on channel=0 note=35 velocity=77 time=0
note_off channel=0 note=35 velocity=0 time=22
note_on channel=0 note=35 velocity=41 time=112
note_off channel=0 note=35 velocity=0 time=212
note_on channel=0 note=37 velocity=88 time=12
note_off channel=0 note=37 velocity=0 time=12
note_on channel=0 note=37 velocity=75 time=11
note_off channel=0 note=37 velocity=0 time=22
note_on channel=0 note=80 velocity=45 time=1
note_off channel=0 note=80 velocity=0 time=134
note_on channel=0 note=35 velocity=43 time=67
note_off channel=0 note=35 velocity=0 time=101
note_on channel=0 note=35 velocity=40 time=22
note_off channel=0 note=35 velocity=0 time=11
note_on channel=0 note=37 velocity=51 time=223
note_off channel=0 note=37 velocity=0 time=78
note_on channel=0 note=31 velocity=41 time=33
note_off channel=0 note=31 velocity=0 time=67
note_on channel=0 note=35 velocity=45 time=66
note_off channel=0 note=35 velocity=0 time=33
note_on channel=0 note=31 velocity=45 time=78
note_off channel=0 note=31 velocity=0 time=122
note_on channel=0 note=30 velocity=42 time=11
note_off channel=0 note=30 velocity=0 time=10
note_on channel=0 note=31 velocity=47 time=0
note_off channel=0 note=31 velocity=0 time=0
note_on channel=0 note=31 velocity=48 time=67
note_off channel=0 note=31 velocity=0 time=34
note_on channel=0 note=32 velocity=46 time=22
note_on channel=0 note=30 velocity=48 time=0
note_off channel=0 note=32 velocity=0 time=89
note_off channel=0 note=30 velocity=0 time=0
note_on channel=0 note=35 velocity=38 time=23
note_off channel=0 note=35 velocity=0 time=12
note_on channel=0 note=31 velocity=39 time=22
note_off channel=0 note=31 velocity=0 time=189
note_on channel=0 note=37 velocity=47 time=111
note_off channel=0 note=37 velocity=0 time=33
note_on channel=0 note=30 velocity=49 time=23
note_off channel=0 note=30 velocity=0 time=213
note_on channel=0 note=37 velocity=70 time=55
note_off channel=0 note=37 velocity=0 time=89
note_on channel=0 note=36 velocity=62 time=89
note_off channel=0 note=36 velocity=0 time=44
note_on channel=0 note=36 velocity=59 time=0
note_off channel=0 note=36 velocity=0 time=267
note_on channel=0 note=35 velocity=58 time=190
note_off channel=0 note=35 velocity=0 time=78
note_on channel=0 note=35 velocity=72 time=89
note_off channel=0 note=35 velocity=0 time=111
note_on channel=0 note=35 velocity=62 time=0
note_off channel=0 note=35 velocity=0 time=212
note_on channel=0 note=35 velocity=62 time=33
note_off channel=0 note=35 velocity=0 time=279
note_on channel=0 note=28 velocity=52 time=0
note_off channel=0 note=28 velocity=0 time=79
note_on channel=0 note=28 velocity=48 time=11
note_on channel=0 note=85 velocity=40 time=0
note_off channel=0 note=28 velocity=0 time=78
note_off channel=0 note=85 velocity=0 time=100
note_on channel=0 note=81 velocity=98 time=178
note_off channel=0 note=81 velocity=0 time=155
note_on channel=0 note=81 velocity=83 time=0
note_off channel=0 note=81 velocity=0 time=10
note_on channel=0 note=81 velocity=58 time=1
note_on channel=0 note=85 velocity=52 time=0
note_off channel=0 note=81 velocity=0 time=77
note_off channel=0 note=85 velocity=0 time=33
note_on channel=0 note=85 velocity=43 time=0
note_off channel=0 note=85 velocity=0 time=177
note_on channel=0 note=85 velocity=43 time=0
note_off channel=0 note=85 velocity=0 time=22
note_on channel=0 note=85 velocity=35 time=0
note_off channel=0 note=85 velocity=0 time=22
note_on channel=0 note=85 velocity=51 time=0
note_off channel=0 note=85 velocity=0 time=22
note_on channel=0 note=37 velocity=40 time=0
note_off channel=0 note=37 velocity=0 time=134
note_on channel=0 note=37 velocity=39 time=44
note_off channel=0 note=37 velocity=0 time=11
note_on channel=0 note=37 velocity=37 time=0
note_off channel=0 note=37 velocity=0 time=67
note_on channel=0 note=30 velocity=46 time=33
note_off channel=0 note=30 velocity=0 time=33
note_on channel=0 note=35 velocity=65 time=11
note_off channel=0 note=35 velocity=0 time=45
note_on channel=0 note=37 velocity=54 time=0
note_off channel=0 note=37 velocity=0 time=278
note_on channel=0 note=37 velocity=52 time=11
note_off channel=0 note=37 velocity=0 time=23
note_on channel=0 note=31 velocity=42 time=0
note_off channel=0 note=31 velocity=0 time=78
note_on channel=0 note=37 velocity=80 time=0
note_off channel=0 note=37 velocity=0 time=12
note_on channel=0 note=37 velocity=73 time=0
note_off channel=0 note=37 velocity=0 time=145
note_on channel=0 note=37 velocity=69 time=0
note_off channel=0 note=37 velocity=0 time=12
note_on channel=0 note=30 velocity=45 time=67
note_off channel=0 note=30 velocity=0 time=112
note_on channel=0 note=30 velocity=46 time=34
note_off channel=0 note=30 velocity=0 time=12
note_on channel=0 note=31 velocity=46 time=89
note_off channel=0 note=31 velocity=0 time=22
note_on channel=0 note=37 velocity=37 time=211
note_off channel=0 note=37 velocity=0 time=167
note_on channel=0 note=37 velocity=44 time=0
note_off channel=0 note=37 velocity=0 time=34
note_on channel=0 note=31 velocity=42 time=0
note_off channel=0 note=31 velocity=0 time=11
note_on channel=0 note=35 velocity=45 time=0
note_off channel=0 note=35 velocity=0 time=11
note_on channel=0 note=31 velocity=42 time=67
note_off channel=0 note=31 velocity=0 time=22
note_on channel=0 note=30 velocity=46 time=11
note_off channel=0 note=30 velocity=0 time=45
note_on channel=0 note=31 velocity=49 time=0
note_off channel=0 note=31 velocity=0 time=11
note_on channel=0 note=32 velocity=38 time=0
note_off channel=0 note=32 velocity=0 time=23
note_on channel=0 note=35 velocity=40 time=56
note_off channel=0 note=35 velocity=0 time=90
note_on channel=0 note=37 velocity=41 time=212
note_on channel=0 note=30 velocity=43 time=33
note_off channel=0 note=37 velocity=0 time=22
note_off channel=0 note=30 velocity=0 time=68
note_on channel=0 note=35 velocity=36 time=45
note_off channel=0 note=35 velocity=0 time=134
note_on channel=0 note=35 velocity=50 time=0
note_off channel=0 note=35 velocity=0 time=123
note_on channel=0 note=35 velocity=42 time=0
note_off channel=0 note=35 velocity=0 time=11
note_on channel=0 note=35 velocity=44 time=0
note_off channel=0 note=35 velocity=0 time=11
note_on channel=0 note=35 velocity=51 time=0
note_off channel=0 note=35 velocity=0 time=122
note_on channel=0 note=35 velocity=35 time=0
note_off channel=0 note=35 velocity=0 time=190
note_on channel=0 note=35 velocity=43 time=55
note_off channel=0 note=35 velocity=0 time=99
note_on channel=0 note=37 velocity=90 time=0
note_off channel=0 note=37 velocity=0 time=67
note_on channel=0 note=37 velocity=69 time=0
note_on channel=0 note=37 velocity=55 time=0
note_off channel=0 note=37 velocity=0 time=0
note_off channel=0 note=37 velocity=0 time=11
note_on channel=0 note=37 velocity=48 time=11
note_off channel=0 note=37 velocity=0 time=67
note_on channel=0 note=28 velocity=60 time=45
note_off channel=0 note=28 velocity=0 time=23
note_on channel=0 note=37 velocity=89 time=0
note_off channel=0 note=37 velocity=0 time=0
note_on channel=0 note=37 velocity=73 time=0
note_off channel=0 note=37 velocity=0 time=22
note_on channel=0 note=37 velocity=59 time=0
note_off channel=0 note=37 velocity=0 time=33
note_on channel=0 note=30 velocity=54 time=45
note_off channel=0 note=30 velocity=0 time=22
note_on channel=0 note=35 velocity=60 time=78
note_off channel=0 note=35 velocity=0 time=101
note_on channel=0 note=35 velocity=75 time=0
note_off channel=0 note=35 velocity=0 time=34
note_on channel=0 note=35 velocity=54 time=11
note_off channel=0 note=35 velocity=0 time=178
note_on channel=0 note=35 velocity=56 time=0
note_off channel=0 note=35 velocity=0 time=0
note_on channel=0 note=35 velocity=60 time=0
note_off channel=0 note=35 velocity=0 time=11
note_on channel=0 note=32 velocity=62 time=44
note_off channel=0 note=32 velocity=0 time=234
note_on channel=0 note=37 velocity=69 time=11
note_off channel=0 note=37 velocity=0 time=90
note_on channel=0 note=37 velocity=53 time=0
note_off channel=0 note=37 velocity=0 time=268
note_on channel=0 note=37 velocity=65 time=11
note_off channel=0 note=37 velocity=0 time=155
note_on channel=0 note=37 velocity=36 time=22
note_off channel=0 note=37 velocity=0 time=11
note_on channel=0 note=37 velocity=49 time=0
note_off channel=0 note=37 velocity=0 time=77
note_on channel=0 note=37 velocity=54 time=11
note_off channel=0 note=37 velocity=0 time=56
note_on channel=0 note=30 velocity=83 time=45
note_off channel=0 note=30 velocity=0 time=1361
note_on channel=0 note=30 velocity=79 time=11
note_off channel=0 note=30 velocity=0 time=79
-------------------
